<svg xmlns="http://www.w3.org/2000/svg" width="1138.8167" height="269" viewBox="0 0 1138.8167 269"><rect x="0" y="0" width="1138.8167" height="269" fill="#FFFFFF"/><defs><marker id="arrow-0" viewBox="0 0 10 10" refX="5" refY="5" markerUnits="userSpaceOnUse" markerWidth="8" markerHeight="8" orient="auto"><path d="M 0 0 L 10 5 L 0 10 z" fill="#64748B" stroke="#64748B" stroke-width="1" stroke-dasharray="1,0"/></marker><marker id="arrow-start-0" viewBox="0 0 10 10" refX="4.5" refY="5" markerUnits="userSpaceOnUse" markerWidth="8" markerHeight="8" orient="auto"><path d="M 0 5 L 10 10 L 10 0 z" fill="#64748B" stroke="#64748B" stroke-width="1" stroke-dasharray="1,0"/></marker></defs><path id="edge-0" class="edgePath" data-edge-id="edge-0" d="M 589.372,33.500 L 831.824,33.500" fill="none" stroke="#64748B" stroke-width="2"    stroke-linecap="round" stroke-linejoin="round" /><rect data-edge-id="edge-0" data-label-kind="center" x="589.40" y="0.00" width="242.39" height="28.40" rx="2" ry="2" fill="#FFFFFF" fill-opacity="0.00" stroke="#94A3B8" stroke-opacity="0.00" stroke-width="0.8"/><g class="edgeLabel" data-edge-id="edge-0" data-label-kind="center"><text x="710.60" y="17.70" text-anchor="middle" font-family="Inter,ui-sans-serif,system-ui,-apple-system,Segoe UI,sans-serif" font-size="14" fill="#0F172A"><tspan x="710.60" dy="0.00">&quot;defined in file aliased&quot;</tspan></text></g><path id="edge-1" class="edgePath" data-edge-id="edge-1" d="M 680.862,134.500 L 940.118,134.500" fill="none" stroke="#64748B" stroke-width="2"    stroke-linecap="round" stroke-linejoin="round" /><rect data-edge-id="edge-1" data-label-kind="center" x="679.96" y="88.60" width="261.06" height="28.40" rx="2" ry="2" fill="#FFFFFF" fill-opacity="0.00" stroke="#94A3B8" stroke-opacity="0.00" stroke-width="0.8"/><g class="edgeLabel" data-edge-id="edge-1" data-label-kind="center"><text x="810.49" y="106.30" text-anchor="middle" font-family="Inter,ui-sans-serif,system-ui,-apple-system,Segoe UI,sans-serif" font-size="14" fill="#0F172A"><tspan x="810.49" dy="0.00">&quot;defined in file extension&quot;</tspan></text></g><path id="edge-2" class="edgePath" data-edge-id="edge-2" d="M 614.112,235.500 L 864.966,235.500" fill="none" stroke="#64748B" stroke-width="2"    stroke-linecap="round" stroke-linejoin="round" /><rect data-edge-id="edge-2" data-label-kind="center" x="613.68" y="189.60" width="251.73" height="28.40" rx="2" ry="2" fill="#FFFFFF" fill-opacity="0.00" stroke="#94A3B8" stroke-opacity="0.00" stroke-width="0.8"/><g class="edgeLabel" data-edge-id="edge-2" data-label-kind="center"><text x="739.54" y="207.30" text-anchor="middle" font-family="Inter,ui-sans-serif,system-ui,-apple-system,Segoe UI,sans-serif" font-size="14" fill="#0F172A"><tspan x="739.54" dy="0.00">&quot;defined in file internal&quot;</tspan></text></g><path id="edge-3" class="edgePath" data-edge-id="edge-3" d="M 166.024,119.965 L 10.575,119.965 L 10.575,33.500 L 154.055,67.233 L 347.096,67.233 L 349.661,33.500" fill="none" stroke="#64748B" stroke-width="2"    stroke-linecap="round" stroke-linejoin="round" /><rect data-edge-id="edge-3" data-label-kind="center" x="162.05" y="6.83" width="177.04" height="52.40" rx="2" ry="2" fill="#FFFFFF" fill-opacity="0.00" stroke="#94A3B8" stroke-opacity="0.00" stroke-width="0.8"/><g class="edgeLabel" data-edge-id="edge-3" data-label-kind="center"><text x="250.58" y="26.03" text-anchor="middle" font-family="Inter,ui-sans-serif,system-ui,-apple-system,Segoe UI,sans-serif" font-size="14" fill="#0F172A"><tspan x="250.58" dy="0.00">&quot;named import</tspan><tspan x="250.58" dy="21.00">@/aliased:aliased&quot;</tspan></text></g><path id="edge-4" class="edgePath" data-edge-id="edge-4" d="M 166.024,134.500 L 408.476,134.500" fill="none" stroke="#64748B" stroke-width="2"    stroke-linecap="round" stroke-linejoin="round" /><rect data-edge-id="edge-4" data-label-kind="center" x="166.05" y="64.60" width="242.39" height="52.40" rx="2" ry="2" fill="#FFFFFF" fill-opacity="0.00" stroke="#94A3B8" stroke-opacity="0.00" stroke-width="0.8"/><g class="edgeLabel" data-edge-id="edge-4" data-label-kind="center"><text x="287.25" y="83.80" text-anchor="middle" font-family="Inter,ui-sans-serif,system-ui,-apple-system,Segoe UI,sans-serif" font-size="14" fill="#0F172A"><tspan x="287.25" dy="0.00">&quot;named import</tspan><tspan x="287.25" dy="21.00">./extension.js:extension&quot;</tspan></text></g><path id="edge-5" class="edgePath" data-edge-id="edge-5" d="M 166.024,149.035 L 168.123,182.768 L 370.500,182.768 L 340.564,235.500 L 358.064,235.500" fill="none" stroke="#64748B" stroke-width="2"    stroke-linecap="round" stroke-linejoin="round" /><rect data-edge-id="edge-5" data-label-kind="center" x="176.12" y="122.37" width="186.38" height="52.40" rx="2" ry="2" fill="#FFFFFF" fill-opacity="0.00" stroke="#94A3B8" stroke-opacity="0.00" stroke-width="0.8"/><g class="edgeLabel" data-edge-id="edge-5" data-label-kind="center"><text x="269.31" y="141.57" text-anchor="middle" font-family="Inter,ui-sans-serif,system-ui,-apple-system,Segoe UI,sans-serif" font-size="14" fill="#0F172A"><tspan x="269.31" dy="0.00">&quot;named import</tspan><tspan x="269.31" dy="21.00">#internal:internal&quot;</tspan></text></g><rect x="349.66" y="8.00" width="239.71" height="51.00" rx="3" ry="3" fill="#F8FAFC" stroke="#94A3B8" stroke-width="1" stroke-linejoin="round" stroke-linecap="round"/><text x="469.52" y="37.00" text-anchor="middle" font-family="Inter,ui-sans-serif,system-ui,-apple-system,Segoe UI,sans-serif" font-size="14" fill="#0F172A"><tspan x="469.52" dy="0.00">app/aliased.ts:aliased</tspan></text><rect x="408.48" y="109.00" width="272.39" height="51.00" rx="3" ry="3" fill="#F8FAFC" stroke="#94A3B8" stroke-width="1" stroke-linejoin="round" stroke-linecap="round"/><text x="544.67" y="138.00" text-anchor="middle" font-family="Inter,ui-sans-serif,system-ui,-apple-system,Segoe UI,sans-serif" font-size="14" fill="#0F172A"><tspan x="544.67" dy="0.00">app/extension.ts:extension</tspan></text><rect x="358.06" y="210.00" width="256.05" height="51.00" rx="3" ry="3" fill="#F8FAFC" stroke="#94A3B8" stroke-width="1" stroke-linejoin="round" stroke-linecap="round"/><text x="486.09" y="239.00" text-anchor="middle" font-family="Inter,ui-sans-serif,system-ui,-apple-system,Segoe UI,sans-serif" font-size="14" fill="#0F172A"><tspan x="486.09" dy="0.00">app/internal.ts:internal</tspan></text><rect x="831.82" y="8.00" width="174.36" height="51.00" rx="3" ry="3" fill="#F8FAFC" stroke="#94A3B8" stroke-width="1" stroke-linejoin="round" stroke-linecap="round"/><text x="919.01" y="37.00" text-anchor="middle" font-family="Inter,ui-sans-serif,system-ui,-apple-system,Segoe UI,sans-serif" font-size="14" fill="#0F172A"><tspan x="919.01" dy="0.00">app/aliased.ts</tspan></text><rect x="940.12" y="109.00" width="190.70" height="51.00" rx="3" ry="3" fill="#F8FAFC" stroke="#94A3B8" stroke-width="1" stroke-linejoin="round" stroke-linecap="round"/><text x="1035.47" y="138.00" text-anchor="middle" font-family="Inter,ui-sans-serif,system-ui,-apple-system,Segoe UI,sans-serif" font-size="14" fill="#0F172A"><tspan x="1035.47" dy="0.00">app/extension.ts</tspan></text><rect x="8.00" y="109.00" width="158.02" height="51.00" rx="3" ry="3" fill="#F8FAFC" stroke="#94A3B8" stroke-width="1" stroke-linejoin="round" stroke-linecap="round"/><text x="87.01" y="138.00" text-anchor="middle" font-family="Inter,ui-sans-serif,system-ui,-apple-system,Segoe UI,sans-serif" font-size="14" fill="#0F172A"><tspan x="87.01" dy="0.00">app/index.ts</tspan></text><rect x="864.97" y="210.00" width="182.53" height="51.00" rx="3" ry="3" fill="#F8FAFC" stroke="#94A3B8" stroke-width="1" stroke-linejoin="round" stroke-linecap="round"/><text x="956.23" y="239.00" text-anchor="middle" font-family="Inter,ui-sans-serif,system-ui,-apple-system,Segoe UI,sans-serif" font-size="14" fill="#0F172A"><tspan x="956.23" dy="0.00">app/internal.ts</tspan></text><g transform="translate(831.82 33.50) rotate(0.00)"><polygon points="0,0 -10.40,6.24 -10.40,-6.24" fill="#64748B" stroke="#64748B" stroke-width="2" stroke-linejoin="round" stroke-linecap="round"/></g><g transform="translate(940.12 134.50) rotate(0.00)"><polygon points="0,0 -10.40,6.24 -10.40,-6.24" fill="#64748B" stroke="#64748B" stroke-width="2" stroke-linejoin="round" stroke-linecap="round"/></g><g transform="translate(864.97 235.50) rotate(-0.00)"><polygon points="0,0 -10.40,6.24 -10.40,-6.24" fill="#64748B" stroke="#64748B" stroke-width="2" stroke-linejoin="round" stroke-linecap="round"/></g><g transform="translate(349.66 33.50) rotate(-85.65)"><polygon points="0,0 -10.40,6.24 -10.40,-6.24" fill="#64748B" stroke="#64748B" stroke-width="2" stroke-linejoin="round" stroke-linecap="round"/></g><g transform="translate(408.48 134.50) rotate(-0.00)"><polygon points="0,0 -10.40,6.24 -10.40,-6.24" fill="#64748B" stroke="#64748B" stroke-width="2" stroke-linejoin="round" stroke-linecap="round"/></g><g transform="translate(358.06 235.50) rotate(0.00)"><polygon points="0,0 -10.40,6.24 -10.40,-6.24" fill="#64748B" stroke="#64748B" stroke-width="2" stroke-linejoin="round" stroke-linecap="round"/></g></svg>