<svg xmlns="http://www.w3.org/2000/svg" viewBox="0 0 64 64" role="img" aria-labelledby="title desc">
  <title id="title">Codescythe scythe mark</title>
  <desc id="desc">A stylized scythe icon with a crescent blade and diagonal handle.</desc>
  <defs>
    <linearGradient id="blade" x1="22" x2="59" y1="9" y2="29" gradientUnits="userSpaceOnUse">
      <stop offset="0" stop-color="#fffaf1" />
      <stop offset="0.64" stop-color="#e7ddca" />
      <stop offset="1" stop-color="#9fd8ca" />
    </linearGradient>
    <linearGradient id="handle" x1="12" x2="48" y1="56" y2="18" gradientUnits="userSpaceOnUse">
      <stop offset="0" stop-color="#0b8068" />
      <stop offset="1" stop-color="#64c7b2" />
    </linearGradient>
    <filter id="soft-shadow" x="-20%" y="-20%" width="140%" height="140%">
      <feDropShadow dx="0" dy="3" stdDeviation="2" flood-color="#161513" flood-opacity="0.28" />
    </filter>
  </defs>

  <rect x="4" y="4" width="56" height="56" rx="14" fill="#161513" />
  <rect x="4" y="4" width="56" height="56" rx="14" fill="none" stroke="#64c7b2" stroke-width="3" />

  <path
    d="M15 50 44 19"
    fill="none"
    stroke="#063f36"
    stroke-linecap="round"
    stroke-width="10"
    opacity="0.9"
  />
  <path
    d="M15 50 44 19"
    fill="none"
    stroke="url(#handle)"
    stroke-linecap="round"
    stroke-width="6"
  />
  <path
    d="M11 54 18 47"
    fill="none"
    stroke="#fffaf1"
    stroke-linecap="round"
    stroke-width="3.5"
    opacity="0.82"
  />

  <path
    d="M52 10c-13 .2-24.6 7.3-32.8 21.3 10.1-6.1 22.8-7 38.5-2.5-.5-7.8-2.4-13.8-5.7-18.8Z"
    fill="url(#blade)"
    filter="url(#soft-shadow)"
  />
  <path
    d="M52 10c-13 .2-24.6 7.3-32.8 21.3 10.1-6.1 22.8-7 38.5-2.5-.5-7.8-2.4-13.8-5.7-18.8Z"
    fill="none"
    stroke="#fffaf1"
    stroke-linejoin="round"
    stroke-width="2.4"
  />
  <path
    d="M48.8 16.4c-6.8 1.6-12.8 4.9-17.9 10 6.9-2.4 14.6-2.8 23.4-1.1-.8-3.8-2.6-6.8-5.5-8.9Z"
    fill="#161513"
    opacity="0.26"
  />

  <circle cx="43.4" cy="20.4" r="5.1" fill="#161513" opacity="0.55" />
  <circle cx="43.4" cy="20.4" r="3" fill="#d99422" />

  <path d="M24 43 17 36" fill="none" stroke="#ca4b39" stroke-linecap="round" stroke-width="3.5" />
  <path d="M32 49 27 40" fill="none" stroke="#ca4b39" stroke-linecap="round" stroke-width="3.5" />
  <path d="M18 31h-7" fill="none" stroke="#64c7b2" stroke-linecap="round" stroke-width="3.5" />
</svg>
